<?xml version="1.0" encoding="utf-8"?>
<!-- Generator: Adobe Illustrator 21.0.2, SVG Export Plug-In . SVG Version: 6.00 Build 0)  -->
<svg version="1.2" baseProfile="tiny" id="Laag_1" xmlns="http://www.w3.org/2000/svg" xmlns:xlink="http://www.w3.org/1999/xlink"
	 x="0px" y="0px" width="510.2px" height="510.2px" viewBox="0 0 510.2 510.2" overflow="scroll" xml:space="preserve">
<rect fill="#FFFFFF" width="510.2" height="510.2"/>
<g>
	<path fill="#383F46" d="M160.6,188.5c21.3,0,40.3,10.1,52.5,25.7l27.9-21.4c-18.6-24-47.7-39.4-80.4-39.4
		C104.5,153.5,59,199,59,255.1c0,56.1,45.5,101.7,101.7,101.7c32.7,0,61.8-15.4,80.4-39.4L213.2,296c-12.2,15.6-31.2,25.7-52.5,25.7
		c-36.7,0-66.6-29.9-66.6-66.6S123.9,188.5,160.6,188.5z"/>
	<path fill="#383F46" d="M370.9,188.5c21.3,0,40.3,10.1,52.5,25.7l27.9-21.4c-18.6-24-47.7-39.4-80.4-39.4
		c-56.1,0-101.7,45.5-101.7,101.7c0,56.1,45.5,101.7,101.7,101.7c32.7,0,61.8-15.4,80.4-39.4L423.4,296
		c-12.2,15.6-31.2,25.7-52.5,25.7c-36.7,0-66.6-29.9-66.6-66.6S334.2,188.5,370.9,188.5z"/>
</g>
</svg>
