<svg xmlns="http://www.w3.org/2000/svg" width="1920" height="1080"><path d="M-19,-275L646,-262L759,-276Z" fill="#ffe9a9" stroke="#ffe9a9" stroke-width="1.51"/><path d="M592,1294L459,1299L975,1338Z" fill="#bb7427" stroke="#bb7427" stroke-width="1.51"/><path d="M459,1299L-70,1355L975,1338Z" fill="#ba7d3b" stroke="#ba7d3b" stroke-width="1.51"/><path d="M-19,-275L759,-276L1085,-279Z" fill="#ffe29c" stroke="#ffe29c" stroke-width="1.51"/><path d="M1085,-279L1412,-251L1583,-260Z" fill="#fbb379" stroke="#fbb379" stroke-width="1.51"/><path d="M1459,1324L975,1338L1847,1354Z" fill="#a64309" stroke="#a64309" stroke-width="1.51"/><path d="M1583,-260L1860,-176L2022,-220Z" fill="#dc9b6a" stroke="#dc9b6a" stroke-width="1.51"/><path d="M2108,-48L2099,157L2150,288Z" fill="#bc8346" stroke="#bc8346" stroke-width="1.51"/><path d="M2150,288L2125,425L2173,600Z" fill="#b76a1f" stroke="#b76a1f" stroke-width="1.51"/><path d="M1085,-279L1583,-260L2180,-275Z" fill="#eea672" stroke="#eea672" stroke-width="1.51"/><path d="M1583,-260L2022,-220L2180,-275Z" fill="#d3976c" stroke="#d3976c" stroke-width="1.51"/><path d="M2022,-220L2108,-48L2180,-275Z" fill="#c28f64" stroke="#c28f64" stroke-width="1.51"/><path d="M2108,-48L2150,288L2180,-275Z" fill="#bc8954" stroke="#bc8954" stroke-width="1.51"/><path d="M2150,288L2173,600L2180,-275Z" fill="#b77c3b" stroke="#b77c3b" stroke-width="1.51"/><path d="M2019,1282L1847,1354L2197,1275Z" fill="#812d06" stroke="#812d06" stroke-width="1.51"/><path d="M1927,925L2032,1113L2208,952Z" fill="#a23a05" stroke="#a23a05" stroke-width="1.51"/><path d="M1999,828L1927,925L2208,952Z" fill="#ac4207" stroke="#ac4207" stroke-width="1.51"/><path d="M2032,1113L2120,1139L2208,952Z" fill="#953505" stroke="#953505" stroke-width="1.51"/><path d="M2163,784L1999,828L2208,952Z" fill="#a94409" stroke="#a94409" stroke-width="1.51"/><path d="M2120,1139L2197,1275L2208,952Z" fill="#8a3106" stroke="#8a3106" stroke-width="1.51"/><path d="M2173,600L2163,784L2208,952Z" fill="#a9490c" stroke="#a9490c" stroke-width="1.51"/><path d="M2180,-275L2173,600L2208,952Z" fill="#b46921" stroke="#b46921" stroke-width="1.51"/><path d="M1975,601L2163,784L2173,600Z" fill="#b65511" stroke="#b65511" stroke-width="1.51"/><path d="M2120,1139L2019,1282L2197,1275Z" fill="#822e06" stroke="#822e06" stroke-width="1.51"/><path d="M1975,601L1999,828L2163,784Z" fill="#b7500d" stroke="#b7500d" stroke-width="1.51"/><path d="M2125,425L1975,601L2173,600Z" fill="#bc6116" stroke="#bc6116" stroke-width="1.51"/><path d="M1964,-7L2099,157L2108,-48Z" fill="#c48a50" stroke="#c48a50" stroke-width="1.51"/><path d="M1991,415L1975,601L2125,425Z" fill="#c1691c" stroke="#c1691c" stroke-width="1.51"/><path d="M2099,157L2014,246L2150,288Z" fill="#be7d38" stroke="#be7d38" stroke-width="1.51"/><path d="M1991,415L2125,425L2150,288Z" fill="#bd7225" stroke="#bd7225" stroke-width="1.51"/><path d="M2014,246L1991,415L2150,288Z" fill="#c0792b" stroke="#c0792b" stroke-width="1.51"/><path d="M1964,-7L1933,106L2099,157Z" fill="#c88a4c" stroke="#c88a4c" stroke-width="1.51"/><path d="M2022,-220L1964,-7L2108,-48Z" fill="#c7905d" stroke="#c7905d" stroke-width="1.51"/><path d="M2032,1113L2019,1282L2120,1139Z" fill="#8d3005" stroke="#8d3005" stroke-width="1.51"/><path d="M1933,106L2014,246L2099,157Z" fill="#c68441" stroke="#c68441" stroke-width="1.51"/><path d="M1975,601L1786,736L1999,828Z" fill="#c3550c" stroke="#c3550c" stroke-width="1.51"/><path d="M1784,279L1991,415L2014,246Z" fill="#cb7d2b" stroke="#cb7d2b" stroke-width="1.51"/><path d="M1933,106L1866,162L2014,246Z" fill="#cc8741" stroke="#cc8741" stroke-width="1.51"/><path d="M1763,1136L1847,1354L2019,1282Z" fill="#923205" stroke="#923205" stroke-width="1.51"/><path d="M1860,-176L1964,-7L2022,-220Z" fill="#d09461" stroke="#d09461" stroke-width="1.51"/><path d="M1763,1136L2019,1282L2032,1113Z" fill="#973404" stroke="#973404" stroke-width="1.51"/><path d="M1927,925L1763,1136L2032,1113Z" fill="#a73b04" stroke="#a73b04" stroke-width="1.51"/><path d="M1770,436L1975,601L1991,415Z" fill="#cc6d1b" stroke="#cc6d1b" stroke-width="1.51"/><path d="M1866,162L1784,279L2014,246Z" fill="#d08438" stroke="#d08438" stroke-width="1.51"/><path d="M1773,950L1763,1136L1927,925Z" fill="#b54104" stroke="#b54104" stroke-width="1.51"/><path d="M1784,279L1770,436L1991,415Z" fill="#d27a25" stroke="#d27a25" stroke-width="1.51"/><path d="M1786,736L1927,925L1999,828Z" fill="#bd4c08" stroke="#bd4c08" stroke-width="1.51"/><path d="M1341,1298L975,1338L1459,1324Z" fill="#b04d0d" stroke="#b04d0d" stroke-width="1.51"/><path d="M1682,1286L1459,1324L1847,1354Z" fill="#9b3806" stroke="#9b3806" stroke-width="1.51"/><path d="M1860,-176L1750,-62L1964,-7Z" fill="#d7965d" stroke="#d7965d" stroke-width="1.51"/><path d="M1752,664L1786,736L1975,601Z" fill="#cc5d10" stroke="#cc5d10" stroke-width="1.51"/><path d="M1770,436L1752,664L1975,601Z" fill="#d16714" stroke="#d16714" stroke-width="1.51"/><path d="M1750,-62L1933,106L1964,-7Z" fill="#d49154" stroke="#d49154" stroke-width="1.51"/><path d="M1786,736L1773,950L1927,925Z" fill="#c04b06" stroke="#c04b06" stroke-width="1.51"/><path d="M1750,-62L1866,162L1933,106Z" fill="#d5904f" stroke="#d5904f" stroke-width="1.51"/><path d="M1678,490L1752,664L1770,436Z" fill="#da6f17" stroke="#da6f17" stroke-width="1.51"/><path d="M1763,1136L1682,1286L1847,1354Z" fill="#9b3605" stroke="#9b3605" stroke-width="1.51"/><path d="M1583,-260L1690,-98L1860,-176Z" fill="#e59f68" stroke="#e59f68" stroke-width="1.51"/><path d="M1696,128L1784,279L1866,162Z" fill="#da8c3f" stroke="#da8c3f" stroke-width="1.51"/><path d="M1750,-62L1696,128L1866,162Z" fill="#dc944f" stroke="#dc944f" stroke-width="1.51"/><path d="M1690,-98L1750,-62L1860,-176Z" fill="#df9c61" stroke="#df9c61" stroke-width="1.51"/><path d="M143,1309L-70,1355L459,1299Z" fill="#bd8851" stroke="#bd8851" stroke-width="1.51"/><path d="M1678,490L1663,656L1752,664Z" fill="#da6913" stroke="#da6913" stroke-width="1.51"/><path d="M1641,1149L1682,1286L1763,1136Z" fill="#a93b04" stroke="#a93b04" stroke-width="1.51"/><path d="M1638,963L1641,1149L1763,1136Z" fill="#b64203" stroke="#b64203" stroke-width="1.51"/><path d="M1590,854L1638,963L1773,950Z" fill="#c94d04" stroke="#c94d04" stroke-width="1.51"/><path d="M1638,963L1763,1136L1773,950Z" fill="#bb4403" stroke="#bb4403" stroke-width="1.51"/><path d="M1649,338L1770,436L1784,279Z" fill="#db8228" stroke="#db8228" stroke-width="1.51"/><path d="M1696,128L1649,338L1784,279Z" fill="#df8b37" stroke="#df8b37" stroke-width="1.51"/><path d="M1752,664L1663,656L1786,736Z" fill="#d4600e" stroke="#d4600e" stroke-width="1.51"/><path d="M1663,656L1590,854L1786,736Z" fill="#d55c0b" stroke="#d55c0b" stroke-width="1.51"/><path d="M1590,854L1773,950L1786,736Z" fill="#cb5107" stroke="#cb5107" stroke-width="1.51"/><path d="M1690,-98L1696,128L1750,-62Z" fill="#e29a58" stroke="#e29a58" stroke-width="1.51"/><path d="M1649,338L1678,490L1770,436Z" fill="#de7b22" stroke="#de7b22" stroke-width="1.51"/><path d="M1690,-98L1521,-70L1696,128Z" fill="#e99e59" stroke="#e99e59" stroke-width="1.51"/><path d="M1638,963L1497,1080L1641,1149Z" fill="#c04703" stroke="#c04703" stroke-width="1.51"/><path d="M1507,159L1490,300L1649,338Z" fill="#eb9137" stroke="#eb9137" stroke-width="1.51"/><path d="M1483,754L1590,854L1663,656Z" fill="#dd5f0b" stroke="#dd5f0b" stroke-width="1.51"/><path d="M1441,576L1663,656L1678,490Z" fill="#e47014" stroke="#e47014" stroke-width="1.51"/><path d="M1583,-260L1521,-70L1690,-98Z" fill="#eea467" stroke="#eea467" stroke-width="1.51"/><path d="M1507,159L1649,338L1696,128Z" fill="#e7913f" stroke="#e7913f" stroke-width="1.51"/><path d="M1521,-70L1507,159L1696,128Z" fill="#ec9d52" stroke="#ec9d52" stroke-width="1.51"/><path d="M1649,338L1436,434L1678,490Z" fill="#e78022" stroke="#e78022" stroke-width="1.51"/><path d="M1641,1149L1459,1324L1682,1286Z" fill="#a83d05" stroke="#a83d05" stroke-width="1.51"/><path d="M1436,434L1441,576L1678,490Z" fill="#e97c1d" stroke="#e97c1d" stroke-width="1.51"/><path d="M1490,300L1436,434L1649,338Z" fill="#ea8a2a" stroke="#ea8a2a" stroke-width="1.51"/><path d="M1441,576L1483,754L1663,656Z" fill="#e46b11" stroke="#e46b11" stroke-width="1.51"/><path d="M1590,854L1524,937L1638,963Z" fill="#d05104" stroke="#d05104" stroke-width="1.51"/><path d="M1524,937L1497,1080L1638,963Z" fill="#ca4d03" stroke="#ca4d03" stroke-width="1.51"/><path d="M1497,1080L1459,1324L1641,1149Z" fill="#b54405" stroke="#b54405" stroke-width="1.51"/><path d="M1412,-251L1521,-70L1583,-260Z" fill="#f3aa6e" stroke="#f3aa6e" stroke-width="1.51"/><path d="M1483,754L1524,937L1590,854Z" fill="#d85a08" stroke="#d85a08" stroke-width="1.51"/><path d="M-19,-275L164,-235L646,-262Z" fill="#fff2ba" stroke="#fff2ba" stroke-width="1.51"/><path d="M1095,1275L975,1338L1341,1298Z" fill="#b55611" stroke="#b55611" stroke-width="1.51"/><path d="M1256,1194L1341,1298L1497,1080Z" fill="#bc4c09" stroke="#bc4c09" stroke-width="1.51"/><path d="M1341,1298L1459,1324L1497,1080Z" fill="#b34708" stroke="#b34708" stroke-width="1.51"/><path d="M1350,293L1490,300L1507,159Z" fill="#f0973c" stroke="#f0973c" stroke-width="1.51"/><path d="M1286,59L1507,159L1521,-70Z" fill="#f3a558" stroke="#f3a558" stroke-width="1.51"/><path d="M1325,-66L1286,59L1521,-70Z" fill="#f7ac61" stroke="#f7ac61" stroke-width="1.51"/><path d="M1412,-251L1325,-66L1521,-70Z" fill="#f6ad6a" stroke="#f6ad6a" stroke-width="1.51"/><path d="M1483,754L1280,769L1524,937Z" fill="#df620d" stroke="#df620d" stroke-width="1.51"/><path d="M1280,769L1313,1018L1524,937Z" fill="#dc5e0a" stroke="#dc5e0a" stroke-width="1.51"/><path d="M1313,1018L1497,1080L1524,937Z" fill="#ce5206" stroke="#ce5206" stroke-width="1.51"/><path d="M164,-235L268,-224L646,-262Z" fill="#ffedb1" stroke="#ffedb1" stroke-width="1.51"/><path d="M1313,1018L1256,1194L1497,1080Z" fill="#c85209" stroke="#c85209" stroke-width="1.51"/><path d="M1286,59L1350,293L1507,159Z" fill="#f4a14a" stroke="#f4a14a" stroke-width="1.51"/><path d="M1291,-168L1325,-66L1412,-251Z" fill="#fbb26f" stroke="#fbb26f" stroke-width="1.51"/><path d="M1441,576L1321,580L1483,754Z" fill="#ea7416" stroke="#ea7416" stroke-width="1.51"/><path d="M1321,580L1280,769L1483,754Z" fill="#eb7114" stroke="#eb7114" stroke-width="1.51"/><path d="M1350,293L1436,434L1490,300Z" fill="#ef922d" stroke="#ef922d" stroke-width="1.51"/><path d="M1436,434L1321,580L1441,576Z" fill="#ef7f1d" stroke="#ef7f1d" stroke-width="1.51"/><path d="M740,1287L592,1294L975,1338Z" fill="#bb6d21" stroke="#bb6d21" stroke-width="1.51"/><path d="M1350,293L1253,418L1436,434Z" fill="#f3912c" stroke="#f3912c" stroke-width="1.51"/><path d="M1253,418L1321,580L1436,434Z" fill="#f28924" stroke="#f28924" stroke-width="1.51"/><path d="M1085,-279L1291,-168L1412,-251Z" fill="#ffb878" stroke="#ffb878" stroke-width="1.51"/><path d="M1280,769L1170,841L1313,1018Z" fill="#e36710" stroke="#e36710" stroke-width="1.51"/><path d="M1103,299L1253,418L1350,293Z" fill="#f89d33" stroke="#f89d33" stroke-width="1.51"/><path d="M1286,59L1111,150L1350,293Z" fill="#faa94e" stroke="#faa94e" stroke-width="1.51"/><path d="M1111,150L1103,299L1350,293Z" fill="#faa743" stroke="#faa743" stroke-width="1.51"/><path d="M1083,650L1280,769L1321,580Z" fill="#f17c1a" stroke="#f17c1a" stroke-width="1.51"/><path d="M1253,418L1162,478L1321,580Z" fill="#f68c24" stroke="#f68c24" stroke-width="1.51"/><path d="M1256,1194L1095,1275L1341,1298Z" fill="#b9510e" stroke="#b9510e" stroke-width="1.51"/><path d="M1170,841L1105,1001L1313,1018Z" fill="#e0650f" stroke="#e0650f" stroke-width="1.51"/><path d="M1118,1131L1256,1194L1313,1018Z" fill="#cb590d" stroke="#cb590d" stroke-width="1.51"/><path d="M1291,-168L1169,-8L1325,-66Z" fill="#fdb46a" stroke="#fdb46a" stroke-width="1.51"/><path d="M1169,-8L1286,59L1325,-66Z" fill="#fcb162" stroke="#fcb162" stroke-width="1.51"/><path d="M1162,478L1083,650L1321,580Z" fill="#f78820" stroke="#f78820" stroke-width="1.51"/><path d="M1105,1001L1118,1131L1313,1018Z" fill="#d4600e" stroke="#d4600e" stroke-width="1.51"/><path d="M1085,-279L1169,-8L1291,-168Z" fill="#ffbc73" stroke="#ffbc73" stroke-width="1.51"/><path d="M1083,650L1170,841L1280,769Z" fill="#ef7718" stroke="#ef7718" stroke-width="1.51"/><path d="M1169,-8L1111,150L1286,59Z" fill="#fcb25d" stroke="#fcb25d" stroke-width="1.51"/><path d="M1103,299L1162,478L1253,418Z" fill="#f99a30" stroke="#f99a30" stroke-width="1.51"/><path d="M1118,1131L1095,1275L1256,1194Z" fill="#c25910" stroke="#c25910" stroke-width="1.51"/><path d="M1085,-279L974,-176L1169,-8Z" fill="#ffc277" stroke="#ffc277" stroke-width="1.51"/><path d="M996,590L1083,650L1162,478Z" fill="#f98f24" stroke="#f98f24" stroke-width="1.51"/><path d="M1103,299L992,422L1162,478Z" fill="#fba032" stroke="#fba032" stroke-width="1.51"/><path d="M974,-176L965,-69L1169,-8Z" fill="#ffc371" stroke="#ffc371" stroke-width="1.51"/><path d="M948,84L1111,150L1169,-8Z" fill="#ffb960" stroke="#ffb960" stroke-width="1.51"/><path d="M965,-69L948,84L1169,-8Z" fill="#ffc069" stroke="#ffc069" stroke-width="1.51"/><path d="M1083,650L928,779L1170,841Z" fill="#f27e1c" stroke="#f27e1c" stroke-width="1.51"/><path d="M974,968L1105,1001L1170,841Z" fill="#e46d13" stroke="#e46d13" stroke-width="1.51"/><path d="M928,779L974,968L1170,841Z" fill="#eb7818" stroke="#eb7818" stroke-width="1.51"/><path d="M992,422L996,590L1162,478Z" fill="#fc982a" stroke="#fc982a" stroke-width="1.51"/><path d="M968,235L1103,299L1111,150Z" fill="#fdaf4b" stroke="#fdaf4b" stroke-width="1.51"/><path d="M1105,1001L966,1123L1118,1131Z" fill="#d36512" stroke="#d36512" stroke-width="1.51"/><path d="M966,1123L1095,1275L1118,1131Z" fill="#c86012" stroke="#c86012" stroke-width="1.51"/><path d="M974,968L966,1123L1105,1001Z" fill="#dc6c14" stroke="#dc6c14" stroke-width="1.51"/><path d="M948,84L968,235L1111,150Z" fill="#ffb858" stroke="#ffb858" stroke-width="1.51"/><path d="M968,235L992,422L1103,299Z" fill="#fdab3c" stroke="#fdab3c" stroke-width="1.51"/><path d="M966,1123L975,1338L1095,1275Z" fill="#c06014" stroke="#c06014" stroke-width="1.51"/><path d="M759,-276L974,-176L1085,-279Z" fill="#ffcc85" stroke="#ffcc85" stroke-width="1.51"/><path d="M996,590L928,779L1083,650Z" fill="#f88a21" stroke="#f88a21" stroke-width="1.51"/><path d="M948,84L824,121L968,235Z" fill="#ffbf5d" stroke="#ffbf5d" stroke-width="1.51"/><path d="M928,779L829,786L974,968Z" fill="#ee811e" stroke="#ee811e" stroke-width="1.51"/><path d="M829,786L795,987L974,968Z" fill="#ea7e1f" stroke="#ea7e1f" stroke-width="1.51"/><path d="M795,987L966,1123L974,968Z" fill="#de7319" stroke="#de7319" stroke-width="1.51"/><path d="M966,1123L744,1189L975,1338Z" fill="#c6691a" stroke="#c6691a" stroke-width="1.51"/><path d="M744,1189L740,1287L975,1338Z" fill="#bf6b1f" stroke="#bf6b1f" stroke-width="1.51"/><path d="M968,235L757,329L992,422Z" fill="#feb340" stroke="#feb340" stroke-width="1.51"/><path d="M757,329L809,452L992,422Z" fill="#ffaf3c" stroke="#ffaf3c" stroke-width="1.51"/><path d="M842,684L928,779L996,590Z" fill="#f88e25" stroke="#f88e25" stroke-width="1.51"/><path d="M992,422L809,452L996,590Z" fill="#fea130" stroke="#fea130" stroke-width="1.51"/><path d="M809,452L842,684L996,590Z" fill="#fd9b2d" stroke="#fd9b2d" stroke-width="1.51"/><path d="M753,-34L948,84L965,-69Z" fill="#ffc970" stroke="#ffc970" stroke-width="1.51"/><path d="M753,-34L965,-69L974,-176Z" fill="#ffcd78" stroke="#ffcd78" stroke-width="1.51"/><path d="M759,-276L753,-34L974,-176Z" fill="#ffd282" stroke="#ffd282" stroke-width="1.51"/><path d="M753,-34L824,121L948,84Z" fill="#ffc96c" stroke="#ffc96c" stroke-width="1.51"/><path d="M824,121L757,329L968,235Z" fill="#ffbd54" stroke="#ffbd54" stroke-width="1.51"/><path d="M795,987L744,1189L966,1123Z" fill="#d5741e" stroke="#d5741e" stroke-width="1.51"/><path d="M268,-224L487,-212L646,-262Z" fill="#ffe8a5" stroke="#ffe8a5" stroke-width="1.51"/><path d="M842,684L829,786L928,779Z" fill="#f58c25" stroke="#f58c25" stroke-width="1.51"/><path d="M646,-262L753,-34L759,-276Z" fill="#ffda8c" stroke="#ffda8c" stroke-width="1.51"/><path d="M674,1152L744,1189L795,987Z" fill="#d57a24" stroke="#d57a24" stroke-width="1.51"/><path d="M647,227L757,329L824,121Z" fill="#ffc55a" stroke="#ffc55a" stroke-width="1.51"/><path d="M664,969L795,987L829,786Z" fill="#eb8625" stroke="#eb8625" stroke-width="1.51"/><path d="M660,763L664,969L829,786Z" fill="#f08f2b" stroke="#f08f2b" stroke-width="1.51"/><path d="M809,452L642,513L842,684Z" fill="#fea635" stroke="#fea635" stroke-width="1.51"/><path d="M642,513L619,591L842,684Z" fill="#fca536" stroke="#fca536" stroke-width="1.51"/><path d="M660,763L829,786L842,684Z" fill="#f7932b" stroke="#f7932b" stroke-width="1.51"/><path d="M619,591L660,763L842,684Z" fill="#f99d32" stroke="#f99d32" stroke-width="1.51"/><path d="M753,-34L579,123L824,121Z" fill="#ffd071" stroke="#ffd071" stroke-width="1.51"/><path d="M579,123L647,227L824,121Z" fill="#ffcd68" stroke="#ffcd68" stroke-width="1.51"/><path d="M664,969L674,1152L795,987Z" fill="#de8126" stroke="#de8126" stroke-width="1.51"/><path d="M757,329L642,513L809,452Z" fill="#ffb341" stroke="#ffb341" stroke-width="1.51"/><path d="M598,-16L579,123L753,-34Z" fill="#ffd77a" stroke="#ffd77a" stroke-width="1.51"/><path d="M646,-262L598,-16L753,-34Z" fill="#ffdc86" stroke="#ffdc86" stroke-width="1.51"/><path d="M647,227L642,513L757,329Z" fill="#febf4a" stroke="#febf4a" stroke-width="1.51"/><path d="M674,1152L740,1287L744,1189Z" fill="#c87624" stroke="#c87624" stroke-width="1.51"/><path d="M457,298L642,513L647,227Z" fill="#ffc554" stroke="#ffc554" stroke-width="1.51"/><path d="M674,1152L592,1294L740,1287Z" fill="#c47727" stroke="#c47727" stroke-width="1.51"/><path d="M487,-212L484,-43L598,-16Z" fill="#ffe292" stroke="#ffe292" stroke-width="1.51"/><path d="M457,298L424,479L642,513Z" fill="#ffc155" stroke="#ffc155" stroke-width="1.51"/><path d="M487,-212L598,-16L646,-262Z" fill="#ffe194" stroke="#ffe194" stroke-width="1.51"/><path d="M619,591L480,751L660,763Z" fill="#f9a23b" stroke="#f9a23b" stroke-width="1.51"/><path d="M437,959L501,1143L664,969Z" fill="#e18b36" stroke="#e18b36" stroke-width="1.51"/><path d="M660,763L480,751L664,969Z" fill="#f19735" stroke="#f19735" stroke-width="1.51"/><path d="M480,751L437,959L664,969Z" fill="#ee953b" stroke="#ee953b" stroke-width="1.51"/><path d="M664,969L501,1143L674,1152Z" fill="#d8832c" stroke="#d8832c" stroke-width="1.51"/><path d="M501,1143L592,1294L674,1152Z" fill="#ca7e2e" stroke="#ca7e2e" stroke-width="1.51"/><path d="M579,123L457,298L647,227Z" fill="#ffd069" stroke="#ffd069" stroke-width="1.51"/><path d="M424,479L619,591L642,513Z" fill="#ffb447" stroke="#ffb447" stroke-width="1.51"/><path d="M484,-43L579,123L598,-16Z" fill="#ffdc83" stroke="#ffdc83" stroke-width="1.51"/><path d="M420,596L480,751L619,591Z" fill="#fcac47" stroke="#fcac47" stroke-width="1.51"/><path d="M424,479L420,596L619,591Z" fill="#ffb54e" stroke="#ffb54e" stroke-width="1.51"/><path d="M484,-43L394,81L579,123Z" fill="#ffde87" stroke="#ffde87" stroke-width="1.51"/><path d="M501,1143L459,1299L592,1294Z" fill="#c47f36" stroke="#c47f36" stroke-width="1.51"/><path d="M311,1254L143,1309L459,1299Z" fill="#c08649" stroke="#c08649" stroke-width="1.51"/><path d="M394,81L457,298L579,123Z" fill="#ffd77a" stroke="#ffd77a" stroke-width="1.51"/><path d="M420,596L335,644L480,751Z" fill="#fcae50" stroke="#fcae50" stroke-width="1.51"/><path d="M338,839L437,959L480,751Z" fill="#f29e48" stroke="#f29e48" stroke-width="1.51"/><path d="M321,-21L484,-43L487,-212Z" fill="#ffe79b" stroke="#ffe79b" stroke-width="1.51"/><path d="M268,-224L321,-21L487,-212Z" fill="#ffeca9" stroke="#ffeca9" stroke-width="1.51"/><path d="M437,959L255,1127L501,1143Z" fill="#dc8e44" stroke="#dc8e44" stroke-width="1.51"/><path d="M255,1127L311,1254L501,1143Z" fill="#cf8a46" stroke="#cf8a46" stroke-width="1.51"/><path d="M311,1254L459,1299L501,1143Z" fill="#c7843f" stroke="#c7843f" stroke-width="1.51"/><path d="M394,81L242,229L457,298Z" fill="#ffda80" stroke="#ffda80" stroke-width="1.51"/><path d="M321,-21L394,81L484,-43Z" fill="#ffe495" stroke="#ffe495" stroke-width="1.51"/><path d="M335,644L338,839L480,751Z" fill="#faa950" stroke="#faa950" stroke-width="1.51"/><path d="M304,919L255,1127L437,959Z" fill="#e5974c" stroke="#e5974c" stroke-width="1.51"/><path d="M338,839L304,919L437,959Z" fill="#ee9c4c" stroke="#ee9c4c" stroke-width="1.51"/><path d="M237,462L424,479L457,298Z" fill="#ffc965" stroke="#ffc965" stroke-width="1.51"/><path d="M242,229L237,462L457,298Z" fill="#ffd471" stroke="#ffd471" stroke-width="1.51"/><path d="M335,644L420,596L424,479Z" fill="#ffb857" stroke="#ffb857" stroke-width="1.51"/><path d="M237,462L335,644L424,479Z" fill="#ffbf5f" stroke="#ffbf5f" stroke-width="1.51"/><path d="M241,94L242,229L394,81Z" fill="#fee290" stroke="#fee290" stroke-width="1.51"/><path d="M321,-21L241,94L394,81Z" fill="#ffe698" stroke="#ffe698" stroke-width="1.51"/><path d="M85,974L255,1127L304,919Z" fill="#e69a54" stroke="#e69a54" stroke-width="1.51"/><path d="M268,-224L79,-70L321,-21Z" fill="#fff0ad" stroke="#fff0ad" stroke-width="1.51"/><path d="M237,462L150,573L335,644Z" fill="#ffbf64" stroke="#ffbf64" stroke-width="1.51"/><path d="M150,573L142,764L335,644Z" fill="#feb761" stroke="#feb761" stroke-width="1.51"/><path d="M335,644L142,764L338,839Z" fill="#faad59" stroke="#faad59" stroke-width="1.51"/><path d="M142,764L304,919L338,839Z" fill="#f4a556" stroke="#f4a556" stroke-width="1.51"/><path d="M164,-235L79,-70L268,-224Z" fill="#fff3b9" stroke="#fff3b9" stroke-width="1.51"/><path d="M79,-70L241,94L321,-21Z" fill="#ffeca4" stroke="#ffeca4" stroke-width="1.51"/><path d="M121,232L237,462L242,229Z" fill="#ffd97d" stroke="#ffd97d" stroke-width="1.51"/><path d="M255,1127L143,1309L311,1254Z" fill="#c98b4f" stroke="#c98b4f" stroke-width="1.51"/><path d="M142,764L85,974L304,919Z" fill="#f2a45a" stroke="#f2a45a" stroke-width="1.51"/><path d="M121,232L107,472L237,462Z" fill="#ffd277" stroke="#ffd277" stroke-width="1.51"/><path d="M241,94L162,165L242,229Z" fill="#ffe392" stroke="#ffe392" stroke-width="1.51"/><path d="M84,1162L143,1309L255,1127Z" fill="#ce8f54" stroke="#ce8f54" stroke-width="1.51"/><path d="M85,974L84,1162L255,1127Z" fill="#dc9756" stroke="#dc9756" stroke-width="1.51"/><path d="M107,472L150,573L237,462Z" fill="#ffc76d" stroke="#ffc76d" stroke-width="1.51"/><path d="M79,-70L162,165L241,94Z" fill="#ffeaa2" stroke="#ffeaa2" stroke-width="1.51"/><path d="M162,165L121,232L242,229Z" fill="#ffe08d" stroke="#ffe08d" stroke-width="1.51"/><path d="M-88,-6L-90,130L79,-70Z" fill="#fff2b3" stroke="#fff2b3" stroke-width="1.51"/><path d="M-19,278L107,472L121,232Z" fill="#ffdb82" stroke="#ffdb82" stroke-width="1.51"/><path d="M-93,762L85,974L142,764Z" fill="#f7ac65" stroke="#f7ac65" stroke-width="1.51"/><path d="M-65,658L142,764L150,573Z" fill="#ffba6a" stroke="#ffba6a" stroke-width="1.51"/><path d="M-90,130L121,232L162,165Z" fill="#ffe69a" stroke="#ffe69a" stroke-width="1.51"/><path d="M79,-70L-90,130L162,165Z" fill="#ffeda8" stroke="#ffeda8" stroke-width="1.51"/><path d="M-19,-275L79,-70L164,-235Z" fill="#fff7c1" stroke="#fff7c1" stroke-width="1.51"/><path d="M-12,1011L84,1162L85,974Z" fill="#e39c5d" stroke="#e39c5d" stroke-width="1.51"/><path d="M-19,278L-49,441L107,472Z" fill="#ffd680" stroke="#ffd680" stroke-width="1.51"/><path d="M107,472L-65,658L150,573Z" fill="#ffc470" stroke="#ffc470" stroke-width="1.51"/><path d="M-65,658L-93,762L142,764Z" fill="#fdb76d" stroke="#fdb76d" stroke-width="1.51"/><path d="M84,1162L-70,1355L143,1309Z" fill="#c48e5a" stroke="#c48e5a" stroke-width="1.51"/><path d="M-93,762L-12,1011L85,974Z" fill="#f1a765" stroke="#f1a765" stroke-width="1.51"/><path d="M-49,441L-65,658L107,472Z" fill="#ffca77" stroke="#ffca77" stroke-width="1.51"/><path d="M-90,130L-19,278L121,232Z" fill="#ffe698" stroke="#ffe698" stroke-width="1.51"/><path d="M-12,1011L-78,1111L84,1162Z" fill="#dd9a60" stroke="#dd9a60" stroke-width="1.51"/><path d="M-19,-275L-88,-6L79,-70Z" fill="#fff7bf" stroke="#fff7bf" stroke-width="1.51"/><path d="M-78,1111L-70,1355L84,1162Z" fill="#ce945f" stroke="#ce945f" stroke-width="1.51"/><path d="M-78,1111L-220,1156L-70,1355Z" fill="#cf9565" stroke="#cf9565" stroke-width="1.51"/><path d="M-204,636L-65,658L-49,441Z" fill="#ffc67a" stroke="#ffc67a" stroke-width="1.51"/><path d="M-284,299L-49,441L-19,278Z" fill="#ffde8e" stroke="#ffde8e" stroke-width="1.51"/><path d="M-274,-86L-88,-6L-19,-275Z" fill="#fff9c7" stroke="#fff9c7" stroke-width="1.51"/><path d="M-277,-262L-274,-86L-19,-275Z" fill="#fffbd3" stroke="#fffbd3" stroke-width="1.51"/><path d="M-93,762L-205,837L-12,1011Z" fill="#f5ac6d" stroke="#f5ac6d" stroke-width="1.51"/><path d="M-217,1015L-78,1111L-12,1011Z" fill="#e49f67" stroke="#e49f67" stroke-width="1.51"/><path d="M-205,837L-217,1015L-12,1011Z" fill="#f0a66c" stroke="#f0a66c" stroke-width="1.51"/><path d="M-264,514L-204,636L-49,441Z" fill="#ffcb82" stroke="#ffcb82" stroke-width="1.51"/><path d="M-90,130L-284,299L-19,278Z" fill="#ffe59d" stroke="#ffe59d" stroke-width="1.51"/><path d="M-220,1156L-253,1318L-70,1355Z" fill="#c69268" stroke="#c69268" stroke-width="1.51"/><path d="M-284,299L-264,514L-49,441Z" fill="#ffd78c" stroke="#ffd78c" stroke-width="1.51"/><path d="M-259,60L-90,130L-88,-6Z" fill="#fff1b6" stroke="#fff1b6" stroke-width="1.51"/><path d="M-204,636L-93,762L-65,658Z" fill="#ffbc76" stroke="#ffbc76" stroke-width="1.51"/><path d="M-259,60L-284,299L-90,130Z" fill="#ffecae" stroke="#ffecae" stroke-width="1.51"/><path d="M-217,1015L-220,1156L-78,1111Z" fill="#df9c6b" stroke="#df9c6b" stroke-width="1.51"/><path d="M-274,-86L-259,60L-88,-6Z" fill="#fff5c1" stroke="#fff5c1" stroke-width="1.51"/><path d="M-204,636L-205,837L-93,762Z" fill="#ffb776" stroke="#ffb776" stroke-width="1.51"/><path d="M-264,514L-205,837L-204,636Z" fill="#ffc07e" stroke="#ffc07e" stroke-width="1.51"/><path d="M-264,514L-217,1015L-205,837Z" fill="#fcb478" stroke="#fcb478" stroke-width="1.51"/><path d="M-253,1318L-220,1156L-217,1015Z" fill="#d6996c" stroke="#d6996c" stroke-width="1.51"/><path d="M-264,514L-253,1318L-217,1015Z" fill="#f1a772" stroke="#f1a772" stroke-width="1.51"/><path d="M-264,514L-284,299L-253,1318Z" fill="#ffbb7e" stroke="#ffbb7e" stroke-width="1.51"/><path d="M-274,-86L-284,299L-259,60Z" fill="#fff1bb" stroke="#fff1bb" stroke-width="1.51"/><path d="M-277,-262L-284,299L-274,-86Z" fill="#fff6c6" stroke="#fff6c6" stroke-width="1.51"/></svg>